<mxfile host="Electron" agent="Mozilla/5.0 (Windows NT 10.0; Win64; x64) AppleWebKit/537.36 (KHTML, like Gecko) draw.io/24.7.17 Chrome/128.0.6613.36 Electron/32.0.1 Safari/537.36" version="24.7.17">
  <diagram name="Page-1" id="lam2A3DZFwsD6wP2p5Dj">
    <mxGraphModel dx="850" dy="847" grid="1" gridSize="10" guides="1" tooltips="1" connect="1" arrows="1" fold="1" page="1" pageScale="1" pageWidth="827" pageHeight="583" math="0" shadow="0">
      <root>
        <mxCell id="0" />
        <mxCell id="1" parent="0" />
        <mxCell id="ApvRFcBczbXoXY5R-yyq-1" value="Event 1" style="rounded=1;whiteSpace=wrap;html=1;fillColor=#d5e8d4;strokeColor=#82b366;gradientColor=#97d077;" parent="1" vertex="1">
          <mxGeometry x="35" y="140" width="50" height="70" as="geometry" />
        </mxCell>
        <mxCell id="ApvRFcBczbXoXY5R-yyq-3" value="Event 2" style="rounded=1;whiteSpace=wrap;html=1;fillColor=#f8cecc;strokeColor=#b85450;gradientColor=#ea6b66;" parent="1" vertex="1">
          <mxGeometry x="35" y="50" width="50" height="60" as="geometry" />
        </mxCell>
        <mxCell id="ApvRFcBczbXoXY5R-yyq-4" value="" style="endArrow=none;dashed=1;html=1;dashPattern=1 1;strokeWidth=2;rounded=0;fillColor=#dae8fc;strokeColor=#6c8ebf;gradientColor=#7ea6e0;" parent="1" edge="1">
          <mxGeometry width="50" height="50" relative="1" as="geometry">
            <mxPoint x="20" y="110" as="sourcePoint" />
            <mxPoint x="220" y="110" as="targetPoint" />
          </mxGeometry>
        </mxCell>
        <mxCell id="ApvRFcBczbXoXY5R-yyq-5" value="" style="endArrow=none;dashed=1;html=1;dashPattern=1 1;strokeWidth=2;rounded=0;fillColor=#60a917;strokeColor=#2D7600;" parent="1" edge="1">
          <mxGeometry width="50" height="50" relative="1" as="geometry">
            <mxPoint x="20" y="140" as="sourcePoint" />
            <mxPoint x="220" y="140" as="targetPoint" />
          </mxGeometry>
        </mxCell>
        <mxCell id="ApvRFcBczbXoXY5R-yyq-6" value="Calendar" style="text;html=1;align=center;verticalAlign=middle;whiteSpace=wrap;rounded=0;" parent="1" vertex="1">
          <mxGeometry x="30" y="20" width="60" height="30" as="geometry" />
        </mxCell>
        <mxCell id="ApvRFcBczbXoXY5R-yyq-7" value="TimeSheet" style="text;html=1;align=center;verticalAlign=middle;whiteSpace=wrap;rounded=0;" parent="1" vertex="1">
          <mxGeometry x="149" y="20" width="60" height="30" as="geometry" />
        </mxCell>
        <mxCell id="ApvRFcBczbXoXY5R-yyq-8" value="Event 2" style="rounded=1;whiteSpace=wrap;html=1;fillColor=#f8cecc;strokeColor=#b85450;gradientColor=#ea6b66;" parent="1" vertex="1">
          <mxGeometry x="154" y="50" width="50" height="60" as="geometry" />
        </mxCell>
        <mxCell id="ApvRFcBczbXoXY5R-yyq-11" value="" style="shape=flexArrow;endArrow=classic;html=1;rounded=0;fillColor=#ffcd28;gradientColor=#ffa500;strokeColor=#d79b00;" parent="1" edge="1">
          <mxGeometry width="50" height="50" relative="1" as="geometry">
            <mxPoint x="100" y="124.75999999999999" as="sourcePoint" />
            <mxPoint x="149" y="124.75999999999999" as="targetPoint" />
          </mxGeometry>
        </mxCell>
        <mxCell id="ApvRFcBczbXoXY5R-yyq-15" value="Filled" style="rounded=1;whiteSpace=wrap;html=1;fillColor=#dae8fc;strokeColor=#6c8ebf;gradientColor=#7ea6e0;" parent="1" vertex="1">
          <mxGeometry x="154" y="110" width="50" height="30" as="geometry" />
        </mxCell>
        <mxCell id="ApvRFcBczbXoXY5R-yyq-17" value="Event 1" style="rounded=1;whiteSpace=wrap;html=1;fillColor=#d5e8d4;strokeColor=#82b366;gradientColor=#97d077;" parent="1" vertex="1">
          <mxGeometry x="154" y="140" width="50" height="70" as="geometry" />
        </mxCell>
        <mxCell id="ApvRFcBczbXoXY5R-yyq-21" value="Event 2" style="rounded=1;whiteSpace=wrap;html=1;fillColor=#f8cecc;strokeColor=#b85450;gradientColor=#ea6b66;" parent="1" vertex="1">
          <mxGeometry x="545" y="60" width="50" height="90" as="geometry" />
        </mxCell>
        <mxCell id="ApvRFcBczbXoXY5R-yyq-24" value="Calendar" style="text;html=1;align=center;verticalAlign=middle;whiteSpace=wrap;rounded=0;" parent="1" vertex="1">
          <mxGeometry x="540" y="30" width="60" height="30" as="geometry" />
        </mxCell>
        <mxCell id="ApvRFcBczbXoXY5R-yyq-25" value="TimeSheet" style="text;html=1;align=center;verticalAlign=middle;whiteSpace=wrap;rounded=0;" parent="1" vertex="1">
          <mxGeometry x="659" y="30" width="60" height="30" as="geometry" />
        </mxCell>
        <mxCell id="ApvRFcBczbXoXY5R-yyq-26" value="Event 2" style="rounded=1;whiteSpace=wrap;html=1;fillColor=#f8cecc;strokeColor=#b85450;gradientColor=#ea6b66;" parent="1" vertex="1">
          <mxGeometry x="664" y="60" width="50" height="60" as="geometry" />
        </mxCell>
        <mxCell id="ApvRFcBczbXoXY5R-yyq-27" value="" style="shape=flexArrow;endArrow=classic;html=1;rounded=0;fillColor=#ffcd28;gradientColor=#ffa500;strokeColor=#d79b00;" parent="1" edge="1">
          <mxGeometry width="50" height="50" relative="1" as="geometry">
            <mxPoint x="610" y="89.75999999999999" as="sourcePoint" />
            <mxPoint x="659" y="89.75999999999999" as="targetPoint" />
          </mxGeometry>
        </mxCell>
        <mxCell id="ApvRFcBczbXoXY5R-yyq-31" value="Event 2" style="rounded=1;whiteSpace=wrap;html=1;fillColor=#f8cecc;strokeColor=#b85450;gradientColor=#ea6b66;" parent="1" vertex="1">
          <mxGeometry x="664" y="120" width="50" height="30" as="geometry" />
        </mxCell>
        <mxCell id="ApvRFcBczbXoXY5R-yyq-32" value="Event 1" style="rounded=1;whiteSpace=wrap;html=1;fillColor=#d5e8d4;strokeColor=#82b366;gradientColor=#97d077;" parent="1" vertex="1">
          <mxGeometry x="260" y="45" width="50" height="109" as="geometry" />
        </mxCell>
        <mxCell id="ApvRFcBczbXoXY5R-yyq-33" value="Launch" style="rounded=1;whiteSpace=wrap;html=1;fillColor=#f8cecc;strokeColor=#b85450;gradientColor=#ea6b66;" parent="1" vertex="1">
          <mxGeometry x="310" y="84" width="50" height="24" as="geometry" />
        </mxCell>
        <mxCell id="ApvRFcBczbXoXY5R-yyq-34" value="" style="endArrow=none;dashed=1;html=1;dashPattern=1 1;strokeWidth=2;rounded=0;fillColor=#f8cecc;strokeColor=#b85450;gradientColor=#ea6b66;" parent="1" edge="1">
          <mxGeometry width="50" height="50" relative="1" as="geometry">
            <mxPoint x="250" y="84" as="sourcePoint" />
            <mxPoint x="490" y="84" as="targetPoint" />
          </mxGeometry>
        </mxCell>
        <mxCell id="ApvRFcBczbXoXY5R-yyq-35" value="" style="endArrow=none;dashed=1;html=1;dashPattern=1 1;strokeWidth=2;rounded=0;fillColor=#f8cecc;strokeColor=#b85450;gradientColor=#ea6b66;" parent="1" edge="1">
          <mxGeometry width="50" height="50" relative="1" as="geometry">
            <mxPoint x="250" y="108" as="sourcePoint" />
            <mxPoint x="490" y="108" as="targetPoint" />
          </mxGeometry>
        </mxCell>
        <mxCell id="ApvRFcBczbXoXY5R-yyq-36" value="Calendar" style="text;html=1;align=center;verticalAlign=middle;whiteSpace=wrap;rounded=0;" parent="1" vertex="1">
          <mxGeometry x="270" y="20" width="60" height="30" as="geometry" />
        </mxCell>
        <mxCell id="ApvRFcBczbXoXY5R-yyq-37" value="TimeSheet" style="text;html=1;align=center;verticalAlign=middle;whiteSpace=wrap;rounded=0;" parent="1" vertex="1">
          <mxGeometry x="419" y="20" width="60" height="30" as="geometry" />
        </mxCell>
        <mxCell id="ApvRFcBczbXoXY5R-yyq-39" value="" style="shape=flexArrow;endArrow=classic;html=1;rounded=0;fillColor=#ffcd28;gradientColor=#ffa500;strokeColor=#d79b00;" parent="1" edge="1">
          <mxGeometry width="50" height="50" relative="1" as="geometry">
            <mxPoint x="370" y="98.75999999999999" as="sourcePoint" />
            <mxPoint x="419" y="98.75999999999999" as="targetPoint" />
          </mxGeometry>
        </mxCell>
        <mxCell id="ApvRFcBczbXoXY5R-yyq-41" value="Event 1" style="rounded=1;whiteSpace=wrap;html=1;fillColor=#d5e8d4;strokeColor=#82b366;gradientColor=#97d077;" parent="1" vertex="1">
          <mxGeometry x="424" y="108" width="50" height="46" as="geometry" />
        </mxCell>
        <mxCell id="ApvRFcBczbXoXY5R-yyq-42" value="Event 1" style="rounded=1;whiteSpace=wrap;html=1;fillColor=#d5e8d4;strokeColor=#82b366;gradientColor=#97d077;" parent="1" vertex="1">
          <mxGeometry x="424" y="44" width="50" height="40" as="geometry" />
        </mxCell>
        <mxCell id="ApvRFcBczbXoXY5R-yyq-56" value="Event 2" style="rounded=1;whiteSpace=wrap;html=1;fillColor=#f8cecc;strokeColor=#b85450;gradientColor=#ea6b66;" parent="1" vertex="1">
          <mxGeometry x="90" y="270" width="50" height="90" as="geometry" />
        </mxCell>
        <mxCell id="ApvRFcBczbXoXY5R-yyq-59" value="Calendar" style="text;html=1;align=center;verticalAlign=middle;whiteSpace=wrap;rounded=0;" parent="1" vertex="1">
          <mxGeometry x="80" y="240" width="60" height="30" as="geometry" />
        </mxCell>
        <mxCell id="ApvRFcBczbXoXY5R-yyq-60" value="TimeSheet" style="text;html=1;align=center;verticalAlign=middle;whiteSpace=wrap;rounded=0;" parent="1" vertex="1">
          <mxGeometry x="250" y="240" width="60" height="30" as="geometry" />
        </mxCell>
        <mxCell id="ApvRFcBczbXoXY5R-yyq-61" value="Event 2" style="rounded=1;whiteSpace=wrap;html=1;fillColor=#f8cecc;strokeColor=#b85450;gradientColor=#ea6b66;" parent="1" vertex="1">
          <mxGeometry x="255" y="270" width="50" height="60" as="geometry" />
        </mxCell>
        <mxCell id="ApvRFcBczbXoXY5R-yyq-62" value="" style="shape=flexArrow;endArrow=classic;html=1;rounded=0;fillColor=#ffcd28;gradientColor=#ffa500;strokeColor=#d79b00;" parent="1" edge="1">
          <mxGeometry width="50" height="50" relative="1" as="geometry">
            <mxPoint x="201" y="299.86" as="sourcePoint" />
            <mxPoint x="250" y="299.86" as="targetPoint" />
          </mxGeometry>
        </mxCell>
        <mxCell id="ApvRFcBczbXoXY5R-yyq-64" value="Event 1" style="rounded=1;whiteSpace=wrap;html=1;fillColor=#d5e8d4;strokeColor=#82b366;gradientColor=#97d077;" parent="1" vertex="1">
          <mxGeometry x="255" y="390" width="50" height="30" as="geometry" />
        </mxCell>
        <mxCell id="ApvRFcBczbXoXY5R-yyq-55" value="Event 1" style="rounded=1;whiteSpace=wrap;html=1;fillColor=#d5e8d4;strokeColor=#82b366;gradientColor=#97d077;" parent="1" vertex="1">
          <mxGeometry x="40" y="330" width="50" height="90" as="geometry" />
        </mxCell>
        <mxCell id="ApvRFcBczbXoXY5R-yyq-66" value="Event 3" style="rounded=1;whiteSpace=wrap;html=1;fillColor=#dae8fc;strokeColor=#6c8ebf;gradientColor=#7ea6e0;" parent="1" vertex="1">
          <mxGeometry x="140" y="350" width="50" height="40" as="geometry" />
        </mxCell>
        <mxCell id="ApvRFcBczbXoXY5R-yyq-69" value="Event 1" style="rounded=1;whiteSpace=wrap;html=1;fillColor=#d5e8d4;strokeColor=#82b366;gradientColor=#97d077;" parent="1" vertex="1">
          <mxGeometry x="255" y="330" width="50" height="20" as="geometry" />
        </mxCell>
        <mxCell id="ApvRFcBczbXoXY5R-yyq-71" value="Event 3" style="rounded=1;whiteSpace=wrap;html=1;fillColor=#dae8fc;strokeColor=#6c8ebf;gradientColor=#7ea6e0;" parent="1" vertex="1">
          <mxGeometry x="255" y="350" width="50" height="40" as="geometry" />
        </mxCell>
        <mxCell id="ApvRFcBczbXoXY5R-yyq-57" value="" style="endArrow=none;dashed=1;html=1;dashPattern=1 1;strokeWidth=2;rounded=0;fillColor=#d5e8d4;strokeColor=#82b366;gradientColor=#97d077;" parent="1" edge="1">
          <mxGeometry width="50" height="50" relative="1" as="geometry">
            <mxPoint x="30" y="330" as="sourcePoint" />
            <mxPoint x="320.27777777777777" y="330" as="targetPoint" />
          </mxGeometry>
        </mxCell>
        <mxCell id="ApvRFcBczbXoXY5R-yyq-67" value="" style="endArrow=none;dashed=1;html=1;dashPattern=1 1;strokeWidth=2;rounded=0;fillColor=#dae8fc;strokeColor=#6c8ebf;gradientColor=#7ea6e0;" parent="1" edge="1">
          <mxGeometry width="50" height="50" relative="1" as="geometry">
            <mxPoint x="30" y="350" as="sourcePoint" />
            <mxPoint x="320.27777777777777" y="350" as="targetPoint" />
          </mxGeometry>
        </mxCell>
        <mxCell id="ApvRFcBczbXoXY5R-yyq-68" value="" style="endArrow=none;dashed=1;html=1;dashPattern=1 1;strokeWidth=2;rounded=0;fillColor=#d5e8d4;strokeColor=#82b366;gradientColor=#97d077;" parent="1" edge="1">
          <mxGeometry width="50" height="50" relative="1" as="geometry">
            <mxPoint x="30" y="390" as="sourcePoint" />
            <mxPoint x="320.27777777777777" y="390" as="targetPoint" />
          </mxGeometry>
        </mxCell>
        <mxCell id="ApvRFcBczbXoXY5R-yyq-72" value="Event 1" style="rounded=1;whiteSpace=wrap;html=1;fillColor=#d5e8d4;strokeColor=#82b366;gradientColor=#97d077;" parent="1" vertex="1">
          <mxGeometry x="349" y="270" width="50" height="150" as="geometry" />
        </mxCell>
        <mxCell id="ApvRFcBczbXoXY5R-yyq-73" value="" style="endArrow=none;dashed=1;html=1;dashPattern=1 1;strokeWidth=2;rounded=0;fillColor=#d5e8d4;strokeColor=#82b366;gradientColor=#97d077;" parent="1" edge="1">
          <mxGeometry width="50" height="50" relative="1" as="geometry">
            <mxPoint x="334" y="330" as="sourcePoint" />
            <mxPoint x="564" y="330" as="targetPoint" />
          </mxGeometry>
        </mxCell>
        <mxCell id="ApvRFcBczbXoXY5R-yyq-75" value="Calendar" style="text;html=1;align=center;verticalAlign=middle;whiteSpace=wrap;rounded=0;" parent="1" vertex="1">
          <mxGeometry x="344" y="240" width="60" height="30" as="geometry" />
        </mxCell>
        <mxCell id="ApvRFcBczbXoXY5R-yyq-76" value="TimeSheet" style="text;html=1;align=center;verticalAlign=middle;whiteSpace=wrap;rounded=0;" parent="1" vertex="1">
          <mxGeometry x="502" y="240" width="60" height="30" as="geometry" />
        </mxCell>
        <mxCell id="ApvRFcBczbXoXY5R-yyq-77" value="Event 2" style="rounded=1;whiteSpace=wrap;html=1;fillColor=#f8cecc;strokeColor=#b85450;gradientColor=#ea6b66;" parent="1" vertex="1">
          <mxGeometry x="507" y="270" width="50" height="60" as="geometry" />
        </mxCell>
        <mxCell id="ApvRFcBczbXoXY5R-yyq-78" value="" style="shape=flexArrow;endArrow=classic;html=1;rounded=0;fillColor=#ffcd28;gradientColor=#ffa500;strokeColor=#d79b00;" parent="1" edge="1">
          <mxGeometry width="50" height="50" relative="1" as="geometry">
            <mxPoint x="453" y="344.76" as="sourcePoint" />
            <mxPoint x="502" y="344.76" as="targetPoint" />
          </mxGeometry>
        </mxCell>
        <mxCell id="ApvRFcBczbXoXY5R-yyq-79" value="Event 1" style="rounded=1;whiteSpace=wrap;html=1;fillColor=#d5e8d4;strokeColor=#82b366;gradientColor=#97d077;" parent="1" vertex="1">
          <mxGeometry x="507" y="330" width="50" height="90" as="geometry" />
        </mxCell>
        <mxCell id="ApvRFcBczbXoXY5R-yyq-88" value="Event 2" style="rounded=1;whiteSpace=wrap;html=1;fillColor=#f8cecc;strokeColor=#b85450;gradientColor=#ea6b66;" parent="1" vertex="1">
          <mxGeometry x="399" y="270" width="50" height="60" as="geometry" />
        </mxCell>
        <mxCell id="ApvRFcBczbXoXY5R-yyq-89" value="Event 1" style="rounded=1;whiteSpace=wrap;html=1;fillColor=#d5e8d4;strokeColor=#82b366;gradientColor=#97d077;" parent="1" vertex="1">
          <mxGeometry x="589" y="300" width="50" height="150" as="geometry" />
        </mxCell>
        <mxCell id="ApvRFcBczbXoXY5R-yyq-90" value="" style="endArrow=none;dashed=1;html=1;dashPattern=1 1;strokeWidth=2;rounded=0;fillColor=#d5e8d4;strokeColor=#82b366;gradientColor=#97d077;" parent="1" edge="1">
          <mxGeometry width="50" height="50" relative="1" as="geometry">
            <mxPoint x="574" y="360" as="sourcePoint" />
            <mxPoint x="804" y="360" as="targetPoint" />
          </mxGeometry>
        </mxCell>
        <mxCell id="ApvRFcBczbXoXY5R-yyq-91" value="Calendar" style="text;html=1;align=center;verticalAlign=middle;whiteSpace=wrap;rounded=0;" parent="1" vertex="1">
          <mxGeometry x="589" y="240" width="60" height="30" as="geometry" />
        </mxCell>
        <mxCell id="ApvRFcBczbXoXY5R-yyq-92" value="TimeSheet" style="text;html=1;align=center;verticalAlign=middle;whiteSpace=wrap;rounded=0;" parent="1" vertex="1">
          <mxGeometry x="747" y="240" width="60" height="30" as="geometry" />
        </mxCell>
        <mxCell id="ApvRFcBczbXoXY5R-yyq-93" value="Event 2" style="rounded=1;whiteSpace=wrap;html=1;fillColor=#f8cecc;strokeColor=#b85450;gradientColor=#ea6b66;" parent="1" vertex="1">
          <mxGeometry x="747" y="270" width="50" height="90" as="geometry" />
        </mxCell>
        <mxCell id="ApvRFcBczbXoXY5R-yyq-94" value="" style="shape=flexArrow;endArrow=classic;html=1;rounded=0;fillColor=#ffcd28;gradientColor=#ffa500;strokeColor=#d79b00;" parent="1" edge="1">
          <mxGeometry width="50" height="50" relative="1" as="geometry">
            <mxPoint x="693" y="374.76" as="sourcePoint" />
            <mxPoint x="742" y="374.76" as="targetPoint" />
          </mxGeometry>
        </mxCell>
        <mxCell id="ApvRFcBczbXoXY5R-yyq-95" value="Event 1" style="rounded=1;whiteSpace=wrap;html=1;fillColor=#d5e8d4;strokeColor=#82b366;gradientColor=#97d077;" parent="1" vertex="1">
          <mxGeometry x="747" y="360" width="50" height="90" as="geometry" />
        </mxCell>
        <mxCell id="ApvRFcBczbXoXY5R-yyq-96" value="Event 2" style="rounded=1;whiteSpace=wrap;html=1;fillColor=#f8cecc;strokeColor=#b85450;gradientColor=#ea6b66;" parent="1" vertex="1">
          <mxGeometry x="639" y="270" width="50" height="90" as="geometry" />
        </mxCell>
        <mxCell id="gob5DYd8oA5bV7pTSi-1-2" value="" style="endArrow=none;dashed=1;html=1;dashPattern=1 1;strokeWidth=2;rounded=0;fillColor=#f8cecc;strokeColor=#b85450;gradientColor=#ea6b66;" edge="1" parent="1">
          <mxGeometry width="50" height="50" relative="1" as="geometry">
            <mxPoint x="334" y="270" as="sourcePoint" />
            <mxPoint x="564" y="270" as="targetPoint" />
          </mxGeometry>
        </mxCell>
        <mxCell id="gob5DYd8oA5bV7pTSi-1-3" value="" style="endArrow=none;dashed=1;html=1;dashPattern=1 1;strokeWidth=2;rounded=0;fillColor=#f8cecc;strokeColor=#b85450;gradientColor=#ea6b66;" edge="1" parent="1">
          <mxGeometry width="50" height="50" relative="1" as="geometry">
            <mxPoint x="517" y="119.77000000000001" as="sourcePoint" />
            <mxPoint x="730" y="120" as="targetPoint" />
          </mxGeometry>
        </mxCell>
        <mxCell id="gob5DYd8oA5bV7pTSi-1-4" value="Midnight" style="edgeLabel;html=1;align=center;verticalAlign=middle;resizable=0;points=[];" vertex="1" connectable="0" parent="gob5DYd8oA5bV7pTSi-1-3">
          <mxGeometry x="-0.0905" y="1" relative="1" as="geometry">
            <mxPoint x="16" y="1" as="offset" />
          </mxGeometry>
        </mxCell>
        <mxCell id="gob5DYd8oA5bV7pTSi-1-5" value="Event 1" style="rounded=1;whiteSpace=wrap;html=1;fillColor=#d5e8d4;strokeColor=#82b366;gradientColor=#97d077;" vertex="1" parent="1">
          <mxGeometry x="50" y="520" width="50" height="150" as="geometry" />
        </mxCell>
        <mxCell id="gob5DYd8oA5bV7pTSi-1-6" value="" style="endArrow=none;dashed=1;html=1;dashPattern=1 1;strokeWidth=2;rounded=0;fillColor=#d5e8d4;strokeColor=#82b366;gradientColor=#97d077;" edge="1" parent="1">
          <mxGeometry width="50" height="50" relative="1" as="geometry">
            <mxPoint x="35" y="580" as="sourcePoint" />
            <mxPoint x="265" y="580" as="targetPoint" />
          </mxGeometry>
        </mxCell>
        <mxCell id="gob5DYd8oA5bV7pTSi-1-7" value="Calendar" style="text;html=1;align=center;verticalAlign=middle;whiteSpace=wrap;rounded=0;" vertex="1" parent="1">
          <mxGeometry x="50" y="460" width="60" height="30" as="geometry" />
        </mxCell>
        <mxCell id="gob5DYd8oA5bV7pTSi-1-8" value="TimeSheet" style="text;html=1;align=center;verticalAlign=middle;whiteSpace=wrap;rounded=0;" vertex="1" parent="1">
          <mxGeometry x="230" y="460" width="60" height="30" as="geometry" />
        </mxCell>
        <mxCell id="gob5DYd8oA5bV7pTSi-1-9" value="Event 2" style="rounded=1;whiteSpace=wrap;html=1;fillColor=#f8cecc;strokeColor=#b85450;gradientColor=#ea6b66;" vertex="1" parent="1">
          <mxGeometry x="260" y="490" width="50" height="90" as="geometry" />
        </mxCell>
        <mxCell id="gob5DYd8oA5bV7pTSi-1-10" value="" style="shape=flexArrow;endArrow=classic;html=1;rounded=0;fillColor=#ffcd28;gradientColor=#ffa500;strokeColor=#d79b00;" edge="1" parent="1">
          <mxGeometry width="50" height="50" relative="1" as="geometry">
            <mxPoint x="154" y="594.76" as="sourcePoint" />
            <mxPoint x="203" y="594.76" as="targetPoint" />
          </mxGeometry>
        </mxCell>
        <mxCell id="gob5DYd8oA5bV7pTSi-1-11" value="Event 1" style="rounded=1;whiteSpace=wrap;html=1;fillColor=#d5e8d4;strokeColor=#82b366;gradientColor=#97d077;" vertex="1" parent="1">
          <mxGeometry x="210" y="520" width="50" height="140" as="geometry" />
        </mxCell>
        <mxCell id="gob5DYd8oA5bV7pTSi-1-12" value="Event 2" style="rounded=1;whiteSpace=wrap;html=1;fillColor=#f8cecc;strokeColor=#b85450;gradientColor=#ea6b66;" vertex="1" parent="1">
          <mxGeometry x="100" y="490" width="50" height="90" as="geometry" />
        </mxCell>
      </root>
    </mxGraphModel>
  </diagram>
</mxfile>
